<?xml version="1.0" standalone="no"?>
<!DOCTYPE svg PUBLIC "-//W3C//DTD SVG 20010904//EN"
 "http://www.w3.org/TR/2001/REC-SVG-20010904/DTD/svg10.dtd">
<svg version="1.0" xmlns="http://www.w3.org/2000/svg"
 width="512.000000pt" height="512.000000pt" viewBox="0 0 512.000000 512.000000"
 preserveAspectRatio="xMidYMid meet">
<metadata>
Created by potrace 1.14, written by Peter Selinger 2001-2017
</metadata>
<g transform="translate(0.000000,512.000000) scale(0.100000,-0.100000)"
fill="#000000" stroke="none">
<path d="M2254 4857 c-8 -5 -13 -16 -10 -25 3 -9 8 -39 11 -67 4 -27 8 -68 11
-90 3 -22 7 -53 9 -70 11 -88 15 -124 20 -165 3 -25 7 -56 10 -70 2 -14 7 -50
10 -81 3 -31 7 -65 9 -75 2 -11 7 -46 10 -79 9 -74 12 -100 25 -195 6 -41 13
-97 16 -125 3 -27 7 -61 9 -75 2 -14 7 -51 11 -84 4 -32 8 -68 10 -80 2 -11 7
-48 10 -81 4 -33 9 -69 10 -80 4 -23 12 -93 21 -162 3 -26 7 -50 10 -55 3 -4
72 -8 154 -8 147 0 150 0 154 23 3 12 17 117 31 232 15 116 28 221 30 235 4
27 11 86 20 160 9 84 17 145 21 164 2 10 6 43 8 72 3 29 8 64 10 76 3 13 8 46
11 73 3 28 10 84 15 125 6 41 12 95 15 120 3 25 9 77 15 115 32 242 35 275 19
276 -116 5 -694 2 -705 -4z"/>
<path d="M2439 3011 c-4 -24 -3 -324 1 -330 3 -4 80 -7 173 -7 l167 0 0 172 0
171 -170 0 c-93 0 -170 -3 -171 -6z"/>
<path d="M2498 2215 c-2 -2 -46 -5 -98 -8 -87 -6 -284 -31 -320 -42 -8 -3 -32
-7 -54 -11 -65 -10 -278 -71 -382 -109 -129 -47 -338 -153 -433 -218 -147
-101 -241 -214 -241 -289 0 -69 155 -176 353 -244 86 -30 324 -90 387 -99 25
-3 52 -8 60 -10 34 -9 95 -18 280 -40 46 -5 148 -13 275 -20 98 -7 472 -6 580
0 264 15 593 59 750 101 33 8 67 17 75 19 50 10 147 42 225 73 187 74 295 158
295 229 0 71 -124 204 -288 309 -74 48 -246 134 -345 173 -76 31 -259 88 -307
97 -14 3 -43 10 -65 16 -44 11 -55 14 -135 28 -72 12 -104 17 -170 25 -30 3
-73 9 -95 11 -42 6 -342 13 -347 9z m377 -200 c217 -33 347 -69 461 -126 85
-42 161 -107 170 -146 9 -35 -14 -79 -60 -119 l-41 -35 -15 23 c-71 114 -271
207 -505 235 -22 2 -59 8 -82 12 -44 9 -370 6 -413 -2 -14 -3 -46 -8 -72 -12
-218 -27 -453 -139 -489 -233 -7 -18 -12 -21 -27 -13 -37 20 -92 91 -92 119 0
103 202 217 480 271 95 18 113 21 195 27 44 4 82 8 85 11 6 5 356 -5 405 -12z"/>
<path d="M715 1487 c-81 -56 -194 -172 -229 -236 -102 -188 -61 -371 120 -541
128 -120 313 -226 539 -306 95 -35 292 -93 335 -100 19 -3 38 -8 41 -10 6 -3
133 -30 189 -39 19 -3 42 -8 50 -10 8 -2 35 -7 60 -10 25 -3 56 -8 70 -10 34
-6 98 -13 265 -31 201 -21 821 -20 905 1 8 2 51 6 95 10 82 6 286 36 385 55
30 7 69 14 85 17 107 18 386 101 530 159 84 33 287 136 305 154 3 3 25 19 50
35 25 17 80 65 122 107 140 140 185 290 132 443 -34 103 -138 225 -266 314
l-57 40 -12 -42 c-26 -96 -80 -162 -200 -241 -94 -63 -334 -160 -444 -180 -13
-3 -28 -7 -32 -9 -5 -3 -64 -17 -133 -31 -130 -26 -156 -31 -230 -41 -25 -3
-56 -8 -70 -10 -173 -27 -393 -40 -700 -40 -339 0 -552 13 -785 49 -16 3 -46
7 -65 10 -48 6 -181 33 -259 52 -36 9 -72 17 -82 19 -9 2 -52 15 -95 28 -320
102 -507 234 -547 390 l-12 45 -60 -41z"/>
</g>
</svg>
